<?xml version="1.0" encoding="UTF-8"?>
<svg width="24px" height="24px" viewBox="0 0 24 24" version="1.1" xmlns="http://www.w3.org/2000/svg" xmlns:xlink="http://www.w3.org/1999/xlink">
    <!-- Generator: Sketch 60.1 (88133) - https://sketch.com -->
    <title>icon_vor_ort</title>
    <desc>Created with Sketch.</desc>
    <g id="Home" stroke="none" stroke-width="1" fill="none" fill-rule="evenodd">
        <g id="Desktop" transform="translate(-396.000000, -381.000000)">
            <g id="Group-3" transform="translate(54.000000, 372.000000)">
                <g id="Group-2-Copy-3" transform="translate(333.000000, 0.000000)">
                    <g id="Group">
                        <g id="icon_vor_ort" transform="translate(9.000000, 9.000000)">
                            <path d="M9.09462647,20.0590891 C9.78794233,20.9441362 10.48519,21.5848278 11,22 L11,18 C9.95753604,18.0345762 8.95648755,18.1703006 8,18.4061411 C8.31847969,18.9800026 8.68204456,19.5319314 9.09462647,20.0590891 Z" id="Path"></path>
                            <path d="M8.19432039,18 C9.40409939,17.6935676 10.6739952,17.5186571 12,17.4793362 L12,13 L7,13 C7.08788503,14.7968326 7.48751861,16.4681093 8.19432039,18 Z" id="Path"></path>
                            <path d="M8.5810877,21.2229744 C8.17491426,20.6213243 7.744488,19.8794866 7.3466438,19 C6.52425282,19.3229674 5.74081333,19.7438121 5,20.2639447 C6.38241058,21.6686411 8.10191083,22.6423383 10,23 C9.56810387,22.5430506 9.07520823,21.9552218 8.5810877,21.2229744 Z" id="Path"></path>
                            <path d="M7,11 L12,11 L12,6.48033624 C10.6777048,6.44406084 9.41136169,6.28269789 8.20525264,6 C7.44561804,7.52281597 7.0422495,9.19498649 7,11 Z" id="Path"></path>
                            <path d="M5.78521127,13 L1,13 C1.18180133,15.6915077 2.28150482,18.1311785 3.98693477,20 C4.93597109,19.3881148 5.94199407,18.8948404 7,18.5193335 C6.36619718,17.0130897 5.88139362,15.176591 5.78521127,13 Z" id="Path"></path>
                            <path d="M8.58147513,2.77655523 C9.0754717,2.04471717 9.56799804,1.456764 10,1 C8.1019358,1.35773734 6.38250429,2.33107632 5,3.73578784 C5.74099485,4.25603047 6.52462632,4.67696431 7.34697378,5 C7.74467042,4.12032727 8.17520216,3.37861476 8.58147513,2.77655523 Z" id="Path"></path>
                            <path d="M9.09419783,3.94103606 C8.68157987,4.46822786 8.31824537,5.02019225 8,5.5940907 C8.95630898,5.82994646 9.95744495,5.96542159 11,6 L11,2 C10.4851451,2.41494097 9.78757427,3.05567383 9.09419783,3.94103606 Z" id="Path"></path>
                            <path d="M7,6.39396689 C5.94570637,6.04044757 4.9434903,5.57605655 3.99778393,5 C2.20692521,6.85385953 1.08642659,9.30441521 1,12 L5.77950139,12 C5.82631579,9.77171694 6.32714681,7.90515612 7,6.39396689 Z" id="Path"></path>
                            <path d="M15.4185613,21.2229744 C14.9246374,21.9552218 14.4319385,22.5433326 14,23 C15.8980302,22.6423383 17.6174539,21.6689232 19,20.2642268 C18.2588691,19.7438121 17.4755978,19.3229674 16.6531262,19 C16.255243,19.8794866 15.8245296,20.6210422 15.4185613,21.2229744 Z" id="Path"></path>
                            <path d="M16,18.4061149 C15.0434175,18.1700316 14.0425439,18.034574 13,18 L13,22 C13.5144579,21.5851126 14.212108,20.9442043 14.9058269,20.0589563 C15.3183367,19.5318325 15.681576,18.9799394 16,18.4061149 Z" id="Path"></path>
                            <path d="M17,6.39396689 C17.6728221,7.90515612 18.17363,9.77171694 18.2204423,12 L23,12 C22.9135774,9.3041506 21.7931305,6.85385953 20.0023545,5 C19.0564148,5.57605655 18.054245,6.04071218 17,6.39396689 Z" id="Path"></path>
                            <path d="M17,18.5196145 C18.0582349,18.8951215 19.0642113,19.3883959 20.0132036,20 C21.7185546,18.1311785 22.8182071,15.6915077 23,13 L18.2147325,13 C18.1188325,15.1768721 17.6337735,17.0130897 17,18.5196145 Z" id="Path"></path>
                            <path d="M15.4180348,2.77655523 C15.8240627,3.37861476 16.2548395,4.12060939 16.6527812,5 C17.4753737,4.67696431 18.2587601,4.2563126 19,3.73606997 C17.6174957,2.33135844 15.8980642,1.35773734 14,1 C14.4317569,1.456764 14.9242833,2.04471717 15.4180348,2.77655523 Z" id="Path"></path>
                            <path d="M15.7873337,6 C14.5832334,6.28155972 13.3194563,6.44223646 12,6.47852638 L12,11 L17,11 C16.9511735,9.00080088 16.4512021,7.33672039 15.7873337,6 Z" id="Path"></path>
                            <path d="M14.8798914,3.90522855 C14.1915434,3.03487847 13.5066095,2.40745278 13,2 L13,6 C14.0426333,5.96544388 15.0435087,5.83057185 16,5.5956418 C15.6352097,4.93443363 15.2473081,4.36967314 14.8798914,3.90522855 Z" id="Path"></path>
                            <path d="M17,13 L12,13 L12,17.479065 C13.3260633,17.5183859 14.595741,17.6932965 15.8055985,18 C16.5125651,16.4683805 16.9121301,14.7968326 17,13 Z" id="Path"></path>
                            <path d="M23.9952,12.1601387 C23.996,12.1068036 23.9992,12.0540018 23.9992,12.0004 C23.9992,8.72215741 22.6770667,5.74819161 20.5394667,3.58038601 C20.508,3.53771792 20.4712,3.5019834 20.4309333,3.47131571 C18.2621333,1.32671089 15.2834667,0 11.9997333,0 C8.7136,0 5.73253333,1.32884429 3.5632,3.47611587 C3.5288,3.5030501 3.4976,3.53398447 3.4696,3.56998567 C1.3264,5.73859129 0,8.71709057 0,12.0004 C0,12.0574686 0.00346666667,12.1137371 0.00426666667,12.170539 C0.00346666667,12.1828061 0.000533333333,12.1945398 0.000533333333,12.2070736 C0.000533333333,12.2281409 0.00426666667,12.2478749 0.00666666667,12.2681423 C0.0768,15.4365146 1.3784,18.3059435 3.45413333,20.4137471 C3.48773333,20.4609487 3.52853333,20.4998833 3.5728,20.5329511 C5.74106667,22.6746225 8.7176,23.9997333 11.9984,24 C11.9984,24 11.9986667,24 11.9986667,24 C11.9986667,24 11.9986667,24 11.9989333,24 C11.9992,24 11.9994667,24 11.9997333,24 C11.9997333,24 12,24 12,24 C12,24 12,24 12,24 C12,24 12,24 12,24 C15.2832,24 18.2613333,22.6735558 20.4301333,20.529751 C20.4717333,20.4982833 20.5098667,20.4617487 20.5418667,20.4174806 C22.6157333,18.3131438 23.9176,15.4490483 23.992,12.2857429 C23.9957333,12.2598753 24,12.2340078 24,12.2073402 C24,12.191073 23.9965333,12.1758725 23.9952,12.1601387 Z M10.2309333,1.2339078 C9.76106667,1.66565552 9.2248,2.2211407 8.6872,2.91316377 C8.24533333,3.48224941 7.77653333,4.18333944 7.34373333,5.01483383 C6.4488,4.70949032 5.59626667,4.31187706 4.7896,3.81986066 C6.2944,2.49234974 8.1656,1.5720524 10.2309333,1.2339078 Z M3.98266667,4.60788693 C4.89306667,5.18817294 5.85786667,5.65645522 6.8728,6.01273376 C6.22506667,7.53571786 5.74293333,9.41684723 5.69786667,11.6625221 L1.0968,11.6625221 C1.18,8.9458982 2.25866667,6.47621587 3.98266667,4.60788693 Z M1.11706667,12.7505584 L5.70773333,12.7505584 C5.79973333,14.8156939 6.26506667,16.5578853 6.8728,17.9872662 C5.85786667,18.3432781 4.8928,18.8115604 3.9824,19.3921131 C2.3464,17.619254 1.29146667,15.3042435 1.11706667,12.7505584 Z M4.78933333,20.1801393 C5.596,19.6883896 6.44853333,19.2905097 7.34373333,18.9851662 C7.77653333,19.8166606 8.24533333,20.5177506 8.68746667,21.0868362 C9.22533333,21.779126 9.76186667,22.3351445 10.232,22.7668922 C8.16586667,22.4287476 6.29413333,21.5084503 4.78933333,20.1801393 Z M11.4557333,22.3866129 C10.932,21.9575319 10.2226667,21.2953765 9.51733333,20.3806794 C9.0976,19.8358612 8.72773333,19.2654422 8.40373333,18.6723557 C9.3768,18.4286143 10.3949333,18.2883429 11.4557333,18.2526084 L11.4557333,22.3866129 Z M11.4557333,17.1555052 C10.2205333,17.1941731 9.0376,17.3661789 7.91066667,17.6675223 C7.25226667,16.161072 6.88,14.5175506 6.79813333,12.750825 L11.4554667,12.750825 L11.4554667,17.1555052 L11.4557333,17.1555052 Z M11.4557333,11.6625221 L6.78506667,11.6625221 C6.82453333,9.73845795 7.20133333,7.95599853 7.91066667,6.33274442 C9.0376,6.6340878 10.2202667,6.80609354 11.4554667,6.84476149 L11.4554667,11.6625221 L11.4557333,11.6625221 Z M11.4557333,5.74739158 C10.3952,5.71165706 9.3768,5.57165239 8.404,5.32791093 C8.72773333,4.73482449 9.0976,4.16440548 9.51706667,3.61958732 C10.2224,2.70462349 10.9317333,2.04246808 11.4554667,1.61365379 L11.4554667,5.74739158 L11.4557333,5.74739158 Z M19.2101333,3.82012734 C18.4034667,4.31187706 17.5506667,4.70975699 16.6557333,5.01483383 C16.2229333,4.18333944 15.7541333,3.48224941 15.312,2.91316377 C14.7746667,2.22140738 14.2386667,1.66565552 13.7688,1.2339078 C15.8341333,1.57231908 17.7056,2.49234974 19.2101333,3.82012734 Z M12.5437333,1.61098703 C13.0581333,2.03206774 13.7536,2.68115604 14.4525333,3.58118604 C14.8258667,4.06146872 15.2194667,4.64548818 15.5898667,5.32924431 C14.6186667,5.57218574 13.6021333,5.71165706 12.5437333,5.74739158 L12.5437333,1.61098703 Z M12.5437333,6.84476149 C13.776,6.80636021 14.9562667,6.63515451 16.0808,6.33487783 C16.7008,7.75919197 17.1677333,9.53258442 17.2136,11.6625221 L12.5437333,11.6625221 L12.5437333,6.84476149 Z M12.5437333,12.7505584 L17.2021333,12.7505584 C17.1205333,14.5175506 16.748,16.161072 16.0893333,17.6675223 C14.9621333,17.3659122 13.7789333,17.1939065 12.5437333,17.1552385 L12.5437333,12.7505584 L12.5437333,12.7505584 Z M12.5437333,22.3868796 L12.5437333,18.2526084 C13.6045333,18.2883429 14.6232,18.4286143 15.5962667,18.6723557 C15.2722667,19.2654422 14.9026667,19.8358612 14.4826667,20.3806794 C13.7770667,21.2956432 13.0672,21.9580653 12.5437333,22.3868796 Z M13.768,22.7666256 C14.2381333,22.3348778 14.7744,21.7788593 15.312,21.0865696 C15.7538667,20.5177506 16.2226667,19.8163939 16.6557333,18.9848995 C17.5509333,19.290243 18.4034667,19.6881229 19.2101333,20.1801393 C17.7053333,21.5084503 15.8336,22.4284809 13.768,22.7666256 Z M20.0170667,19.3923797 C19.1066667,18.8120937 18.1416,18.3438115 17.1264,17.9877996 C17.7344,16.5584186 18.1994667,14.8159605 18.2917333,12.750825 L22.8826667,12.750825 C22.7082667,15.3042435 21.6530667,17.619254 20.0170667,19.3923797 Z M18.3013333,11.6625221 C18.2562667,9.41684723 17.7741333,7.53571786 17.1264,6.01273376 C18.1413333,5.65672189 19.1061333,5.18843961 20.0168,4.60788693 C21.7405333,6.47621587 22.8194667,8.94563152 22.9026667,11.6625221 L18.3013333,11.6625221 Z" id="Shape" fill="#30414A" fill-rule="nonzero"></path>
                        </g>
                    </g>
                </g>
            </g>
        </g>
    </g>
</svg>