<?xml version="1.0" encoding="UTF-8"?>
<svg width="24px" height="26px" viewBox="0 0 24 26" version="1.1" xmlns="http://www.w3.org/2000/svg" xmlns:xlink="http://www.w3.org/1999/xlink">
    <!-- Generator: Sketch 60.1 (88133) - https://sketch.com -->
    <title>icon_247</title>
    <desc>Created with Sketch.</desc>
    <g id="Home" stroke="none" stroke-width="1" fill="none" fill-rule="evenodd">
        <g id="Desktop" transform="translate(-396.000000, -433.000000)" fill="#30414A" fill-rule="nonzero">
            <g id="Group-3" transform="translate(54.000000, 372.000000)">
                <g id="Group-2-Copy-4" transform="translate(333.000000, 53.000000)">
                    <g id="Group">
                        <g id="icon_247" transform="translate(9.000000, 8.000000)">
                            <path d="M12.5304714,4.73044 L12.2146416,11.33132 L16.0720583,15.01136 L16.9899067,14.03792 L14.1392615,10.66104 L13.856139,4.73044 L12.5304714,4.73044 Z M4.75891146,5.01904 L5.23367829,8.5124 L3.64277501,9.57892 L3.9821132,10.64492 C4.47016737,12.17736 5.11358119,13.65416 5.90417785,15.04932 C6.6947745,16.44448 7.62999872,17.7476 8.69094161,18.94256 L9.42838891,19.77352 L11.1327456,18.90408 L13.8684042,21.06884 L12.2335505,23.94964 C9.00779354,21.83844 6.38763255,19.44176 4.3960649,15.93124 C2.40654146,12.42592 1.67573783,8.9154 1.49124824,5.01956 L4.75891146,5.01904 Z M6.79085218,9.23104 L6.01865338,3.54744 L0,3.54796 C0.0689919509,8.31116 0.769643542,12.48312 3.14347771,16.66756 C5.52037818,20.85668 8.71700524,23.55496 12.7400026,26 L15.7500958,20.69496 L11.2993484,17.173 L9.76363869,17.95664 C8.76146672,16.82772 7.89012393,15.61092 7.15676504,14.31456 C6.4198288,13.0156 5.81781014,11.63656 5.3578638,10.19148 L6.79085218,9.23104 Z M9.90366679,2.06284 C10.7106171,1.75552 11.5737831,1.55792 12.4747668,1.48928 L12.4747668,2.8054 L13.9113326,2.8054 L13.9113326,1.4898 C16.2125974,1.66712 18.2823559,2.69048 19.8190878,4.25412 C21.3558196,5.81828 22.3615689,7.92376 22.5363485,10.26584 L21.2433883,10.26584 L21.2433883,11.72756 L22.5363485,11.72756 C22.4039862,13.50492 21.7948128,15.14552 20.8381244,16.51468 C19.7199438,18.11576 18.1285294,19.35076 16.2718794,20.00752 L16.7430689,21.38396 C18.8833525,20.62736 20.7175163,19.20412 22.005366,17.3602 C23.2610195,15.56256 24,13.36556 24,10.99748 C24,7.9612 22.7903411,5.21196 20.8345471,3.22192 C18.8792641,1.23084 16.1768238,0 13.1927942,0 C11.8645714,0 10.5869426,0.247 9.40385844,0.69784 C8.17784592,1.16532 7.05762106,1.85276 6.09071164,2.71128 L7.03309058,3.80796 C7.87223713,3.06332 8.8427239,2.4674 9.90366679,2.06284 Z" id="Shape"></path>
                        </g>
                    </g>
                </g>
            </g>
        </g>
    </g>
</svg>