<?xml version="1.0" encoding="UTF-8"?>
<svg width="26px" height="16px" viewBox="0 0 26 16" version="1.1" xmlns="http://www.w3.org/2000/svg" xmlns:xlink="http://www.w3.org/1999/xlink">
    <!-- Generator: Sketch 60.1 (88133) - https://sketch.com -->
    <title>icon_vertrieb</title>
    <desc>Created with Sketch.</desc>
    <g id="Home" stroke="none" stroke-width="1" fill="none" fill-rule="evenodd">
        <g id="Desktop" transform="translate(-62.000000, -490.000000)" fill="#30414A" fill-rule="nonzero">
            <g id="Group-3" transform="translate(54.000000, 372.000000)">
                <g id="Group-2-Copy-2" transform="translate(0.000000, 106.000000)">
                    <g id="Group">
                        <g id="icon_vertrieb" transform="translate(8.000000, 12.000000)">
                            <path d="M20.0589152,6.10654655 C20.1646559,6.17143783 20.2848596,6.20412266 20.4050633,6.20412266 C20.5056616,6.20412266 20.6065813,6.18132302 20.699466,6.1352454 L25.6361749,3.68627606 C25.6438885,3.68244953 25.649513,3.67611189 25.6570659,3.67200634 C25.6963571,3.65056193 25.7328762,3.62555008 25.766342,3.59730958 C25.7756224,3.5894971 25.7856261,3.58262134 25.7944645,3.5742907 C25.8329522,3.53791887 25.8667796,3.49736182 25.8951834,3.45327717 C25.9013302,3.44375074 25.9059101,3.4332079 25.911615,3.42332275 C25.9330684,3.38585479 25.9505848,3.34633407 25.9642443,3.30513924 C25.9687439,3.29160692 25.9734444,3.27819421 25.9770601,3.26428322 C25.9906794,3.21180817 26,3.15777858 26,3.10209483 C26,3.04641108 25.9906794,2.9923815 25.9770601,2.93990642 C25.9734443,2.92599546 25.9687438,2.91258271 25.9642442,2.89905039 C25.9505847,2.85785556 25.9330684,2.81833485 25.9116149,2.78086689 C25.9059101,2.77098174 25.9013301,2.76043889 25.8951833,2.75091247 C25.8667796,2.70682782 25.8329522,2.66627077 25.7944645,2.62989893 C25.785626,2.62156829 25.7756224,2.61469253 25.766342,2.60688006 C25.7328762,2.57863959 25.6963571,2.55362774 25.6570659,2.53218329 C25.649513,2.52807778 25.6438884,2.52174011 25.6361748,2.51791357 L20.699466,0.0689442395 C20.4953768,-0.0322989609 20.2530409,-0.0214571778 20.0589151,0.0976430908 C19.8651108,0.216583948 19.7468354,0.426723378 19.7468354,0.653125499 L19.7468354,2.44903634 L16.2911392,2.44903634 C16.0815862,2.44903634 15.8842464,2.54820684 15.7601859,2.71593573 L12.6708861,6.89556587 L7.77145967,0.266966398 C7.64739912,0.0992375004 7.45005935,0 7.24050633,0 L0.658227848,0 C0.294724086,0 0,0.292476495 0,0.653125499 C0,1.0137745 0.294724086,1.30618399 0.658227848,1.30618399 L6.90689279,1.30618399 L11.8545293,8.0000335 L6.90689279,14.693883 L0.658227848,14.693883 C0.294724086,14.693883 0,14.9862925 0,15.3469415 C0,15.7075905 0.294724086,16 0.658227848,16 L7.24050633,16 C7.45005935,16 7.64739912,15.9008295 7.77145967,15.7331006 L12.6708861,9.10450114 L15.7601859,13.2841313 C15.8842464,13.4518602 16.0815863,13.5510307 16.2911392,13.5510307 L19.7468354,13.5510307 L19.7468354,15.3469415 C19.7468354,15.5733436 19.8651108,15.7834831 20.0589152,15.9024239 C20.1646559,15.9673152 20.2848596,16 20.4050633,16 C20.5056616,16 20.6065813,15.9772004 20.699466,15.9311227 L25.6361749,13.4821534 C25.6438885,13.4783269 25.649513,13.4719892 25.6570659,13.4678837 C25.6963571,13.4464393 25.7328762,13.4214274 25.766342,13.3931869 C25.7756224,13.3853744 25.7856261,13.3784987 25.7944645,13.370168 C25.8329522,13.3337962 25.8667796,13.2932392 25.8951834,13.2491545 C25.9013302,13.2396281 25.9059101,13.2290852 25.911615,13.2192001 C25.9330684,13.1817321 25.9505848,13.1422114 25.9642443,13.1010166 C25.9687439,13.0874843 25.9734444,13.0740716 25.9770601,13.0601606 C25.9906794,13.0076855 26,12.9536559 26,12.8979722 C26,12.8422884 25.9906794,12.7882588 25.9770601,12.7357838 C25.9734443,12.7218728 25.9687438,12.7084601 25.9642442,12.6949277 C25.9505847,12.6537329 25.9330684,12.6142122 25.9116149,12.5767442 C25.9059101,12.5668591 25.9013301,12.5563162 25.8951833,12.5467898 C25.8667796,12.5027052 25.8329522,12.4621481 25.7944645,12.4257763 C25.785626,12.4174456 25.7756224,12.4105699 25.766342,12.4027574 C25.7328762,12.3745169 25.6963571,12.3495051 25.6570659,12.3280606 C25.649513,12.3239551 25.6438884,12.3176174 25.6361748,12.3137909 L20.699466,9.86482158 C20.4953768,9.76389727 20.2530409,9.77426072 20.0589151,9.89352043 C19.8651108,10.0124613 19.7468354,10.2226007 19.7468354,10.4490028 L19.7468354,12.2449137 L16.6247528,12.2449137 L13.4872429,8.0000335 L16.6247528,3.75515332 L19.7468354,3.75515332 L19.7468354,5.55106417 C19.7468354,5.77746629 19.8651108,5.98760572 20.0589152,6.10654655 Z M20.9444444,3.59130986 L20.9444444,2.22687196 L20.9444444,1.45454545 L22.4783707,2.22687196 L23.8333333,2.90909091 L22.4783707,3.59130986 L20.9444444,4.36363636 L20.9444444,3.59130986 Z M20.9444444,13.773128 L20.9444444,12.4086901 L20.9444444,11.6363636 L22.4783707,12.4086901 L23.8333333,13.0909091 L22.4783707,13.773128 L20.9444444,14.5454545 L20.9444444,13.773128 Z" id="Shape"></path>
                        </g>
                    </g>
                </g>
            </g>
        </g>
    </g>
</svg>