<?xml version="1.0" encoding="UTF-8"?>
<svg width="28px" height="22px" viewBox="0 0 28 22" version="1.1" xmlns="http://www.w3.org/2000/svg" xmlns:xlink="http://www.w3.org/1999/xlink">
    <!-- Generator: Sketch 60.1 (88133) - https://sketch.com -->
    <title>icon_process</title>
    <desc>Created with Sketch.</desc>
    <g id="Home" stroke="none" stroke-width="1" fill="none" fill-rule="evenodd">
        <g id="Desktop" transform="translate(-60.000000, -435.000000)" fill="#30414A" fill-rule="nonzero">
            <g id="Group-3" transform="translate(54.000000, 372.000000)">
                <g id="Group-2-Copy" transform="translate(0.000000, 53.000000)">
                    <g id="Group">
                        <g id="icon_process" transform="translate(6.000000, 10.000000)">
                            <path d="M27.5342861,7.62287181 L26.8131958,7.62287181 C26.6990832,7.05546193 26.473382,6.51636184 26.1491918,6.03686064 L26.6569596,5.5262131 C26.7450307,5.4388025 26.7945627,5.31986407 26.7945627,5.19579411 C26.7945627,5.07172415 26.7450307,4.95278572 26.6569596,4.86537512 L26.0981146,4.31267425 C26.0106826,4.2246246 25.8917151,4.17510475 25.7676149,4.17510475 C25.6435146,4.17510475 25.5245471,4.2246246 25.4371151,4.31267425 L24.9263428,4.83533703 C24.4464517,4.51689024 23.9083462,4.29639232 23.3429487,4.18651427 L23.3429487,3.4656001 C23.3429513,3.34159564 23.2934739,3.2227134 23.2054865,3.1353114 C23.1174992,3.0479094 22.9982721,2.99920967 22.87424,3 L22.0870497,3 C21.9630149,3 21.8441037,3.04947238 21.7566803,3.13743826 C21.6692569,3.22540415 21.6205453,3.34460203 21.6213455,3.46860391 L21.6213455,4.18951808 C21.0571353,4.30374327 20.5210691,4.52832564 20.0439605,4.85035607 L19.5331882,4.34271234 C19.3503602,4.16094767 19.0550167,4.16094767 18.8721887,4.34271234 L18.3193528,4.90142082 C18.2312816,4.98883143 18.1817497,5.10776986 18.1817497,5.23183982 C18.1817497,5.35590978 18.2312816,5.47484821 18.3193528,5.56225881 L18.8211115,6.07290635 C18.5025869,6.55268025 18.2820351,7.09065434 18.1721302,7.65591371 L17.4510399,7.65591371 C17.3269659,7.65982169 17.2095872,7.7130913 17.1249677,7.80389407 C17.0403482,7.89469684 16.9954916,8.01551715 17.0003584,8.13952697 L17.0003584,8.92352113 C17.0003559,9.04752559 17.0498332,9.16640783 17.1378206,9.25380983 C17.225808,9.34121183 17.345035,9.38991156 17.4690671,9.38911153 L18.1901575,9.38911153 C18.3044106,9.95318394 18.5290478,10.4891192 18.8511569,10.9661113 L18.3433892,11.4767588 C18.255318,11.5641694 18.205786,11.6831078 18.205786,11.8071778 C18.205786,11.9312478 18.255318,12.0501862 18.3433892,12.1375968 L18.9022341,12.6902977 C18.9896661,12.7783473 19.1086336,12.8278672 19.2327339,12.8278672 C19.3568342,12.8278672 19.4758016,12.7783473 19.5632336,12.6902977 L20.0710014,12.1796501 C20.5508553,12.4981671 21.0889753,12.7186709 21.6543955,12.8284729 L21.6543955,13.5463832 C21.6609521,13.8011698 21.8711979,14.0033314 22.1261088,14 L22.9102945,14 C23.0343292,14 23.1532405,13.9504957 23.2406639,13.8625298 C23.3280872,13.774564 23.3767989,13.6553661 23.3759986,13.5313642 L23.3759986,12.81045 C23.9402089,12.6962248 24.476275,12.4716425 24.9533837,12.149612 L25.4671606,12.6452405 C25.5545925,12.7332902 25.67356,12.78281 25.7976603,12.78281 C25.9217606,12.78281 26.0407281,12.7332902 26.12816,12.6452405 L26.6809959,12.086532 C26.7690671,11.9991214 26.818599,11.880183 26.818599,11.756113 C26.818599,11.6320431 26.7690671,11.5131047 26.6809959,11.4256941 L26.1702236,10.9180503 C26.4869626,10.4398508 26.7064598,9.90400016 26.8162004,9.34105058 L27.5342861,9.34105058 C27.6583209,9.34105316 27.7772322,9.29158791 27.8646555,9.20362202 C27.9520789,9.11565614 28.0007905,8.99645825 28,8.87245637 L28,8.08846221 C27.9983511,7.8320056 27.7908054,7.62451056 27.5342861,7.62287181 L27.5342861,7.62287181 Z M23.0171709,10.999926 C22.206734,11.0068729 21.472227,10.5240251 21.1572608,9.77726459 C20.8422946,9.03050407 21.0091464,8.16748501 21.5797609,7.59193785 C22.1503755,7.01639069 23.0119272,6.84211627 23.7613721,7.1506422 C24.5108171,7.45916813 25,8.1894907 25,8.99995647 C25.0000403,10.097849 24.1150243,10.9905155 23.0171709,10.999926 L23.0171709,10.999926 Z M2.89628943,22 L13.7358411,22 L14.0441332,15.0152385 L16.1405198,17.7943213 C16.4762876,18.2395195 17.0117951,18.48743 17.5679124,18.4551255 L24.2331885,17.9518027 C24.6640966,17.9252521 25,17.5674768 25,17.1350611 C25,16.7026454 24.6640966,16.3448701 24.2331885,16.3183196 L18.1999113,15.8180847 L16.0418663,11.6772512 C15.7955987,11.2019109 15.4843041,10.7633203 15.1169899,10.3741702 L15.1169899,10.3741702 C14.9082667,10.151087 14.6825324,9.94460604 14.4418301,9.75659623 C13.6052268,9.12045008 12.7197255,8.5515393 11.7936006,8.05517997 L10.3785397,14.8484935 L9.660219,10.355643 L10.1380718,9.58676339 L9.41975113,8.68819328 L11.269504,7.4993634 L11.269504,6.7428353 C11.4456888,6.44842318 11.5658956,6.12386727 11.6240399,5.78559566 C11.7596885,5.78559566 11.9323321,5.58488412 12.129639,4.90555277 C12.3916874,3.97919183 12.1142244,3.83714981 11.8768395,3.86185277 C11.9210354,3.73718698 11.9550592,3.60913487 11.9785759,3.47895692 C12.3793557,1.07350634 11.1955139,0.987045986 11.1955139,0.987045986 C11.0227161,0.705087365 10.7765242,0.475579995 10.483359,0.323153978 C10.0405223,0.0666380792 9.52747691,-0.0415448438 9.01897134,0.0143669979 C8.82051727,0.0239845493 8.62438703,0.0614026551 8.4362992,0.125530311 L8.4362992,0.125530311 C8.20809888,0.204907775 7.99222188,0.316138136 7.79505155,0.45593238 C7.55323626,0.609840233 7.3315994,0.793450945 7.13530637,1.00248534 C6.78737327,1.34686014 6.54096118,1.78064321 6.42315152,2.25616048 C6.32860141,2.66243068 6.32860141,3.08503819 6.42315152,3.4913084 L6.42315152,3.4913084 C6.44664171,3.62149228 6.48066605,3.74954653 6.52488793,3.87420425 C6.28750298,3.85258916 6.01004005,3.98845544 6.27208837,4.91790425 C6.4632295,5.5972356 6.64203894,5.78868353 6.77768748,5.79794714 C6.83594067,6.14006927 6.95609077,6.46865784 7.13222344,6.76753826 L7.13222344,7.51171488 L8.98197629,8.70054476 L8.27907021,9.596027 L8.80316685,10.355643 L8.08792908,14.8701086 L6.67595108,8.07679506 C5.76927816,8.56280924 4.90142551,9.11821798 4.08013125,9.73806901 C3.3367111,10.3085591 2.74137001,11.0499582 2.3444465,11.8995779 L1.29008738,14.1290199 L0.133991856,16.5993157 C-0.0723950573,17.0404747 -0.0386493286,17.5567972 0.223396577,17.967242 L2.89628943,22 Z M3.07747357,16.3290881 L4.66713539,14 L5,20 L3.06503004,16.8364748 C2.97404137,16.6822639 2.97884978,16.4909251 3.07747357,16.3413143 L3.07747357,16.3290881 Z" id="Shape"></path>
                        </g>
                    </g>
                </g>
            </g>
        </g>
    </g>
</svg>