<?xml version="1.0" encoding="UTF-8"?>
<svg width="24px" height="19px" viewBox="0 0 24 19" version="1.1" xmlns="http://www.w3.org/2000/svg" xmlns:xlink="http://www.w3.org/1999/xlink">
    <!-- Generator: Sketch 60.1 (88133) - https://sketch.com -->
    <title>noun_training_1064024</title>
    <desc>Created with Sketch.</desc>
    <g id="Home" stroke="none" stroke-width="1" fill="none" fill-rule="evenodd">
        <g id="Desktop" transform="translate(-63.000000, -383.000000)" fill="#30414A" fill-rule="nonzero">
            <g id="Group-3" transform="translate(54.000000, 372.000000)">
                <g id="Group-2">
                    <g id="Group">
                        <g id="noun_training_1064024" transform="translate(9.000000, 11.000000)">
                            <path d="M22.4810127,3.69253294 L16.556962,3.69253294 L16.556962,2.57247438 C16.556962,2.27379209 16.3037975,2 15.9746835,2 C15.6708861,2 15.3924051,2.2489019 15.3924051,2.57247438 L15.3924051,3.69253294 L9.51898734,3.69253294 C8.6835443,3.69253294 8,4.36456808 8,5.18594436 L8,7.1522694 L8,9.11859444 L8,14.1713031 C8,14.9926794 8.6835443,15.6647145 9.51898734,15.6647145 L12.3037975,15.6647145 L11.3924051,18.9751098 L12.5822785,18.9751098 L13.4936709,15.6647145 L15.443038,15.6647145 L15.443038,18.9751098 L16.5822785,18.9751098 L16.5822785,15.6896047 L18.5063291,15.6896047 L19.4177215,19 L20.6075949,19 L19.6962025,15.6896047 L22.4810127,15.6896047 C23.3164557,15.6896047 24,15.0175695 24,14.1961933 L24,5.21083455 C24,4.36456808 23.3164557,3.69253294 22.4810127,3.69253294 Z M23.2405063,14.1961933 C23.2405063,14.6193265 22.8860759,14.942899 22.4810127,14.942899 L9.51898734,14.942899 C9.08860759,14.942899 8.75949367,14.5944363 8.75949367,14.1961933 L8.75949367,9.39238653 L8.75949367,7.42606149 L8.75949367,5.21083455 C8.75949367,4.78770132 9.11392405,4.46412884 9.51898734,4.46412884 L22.4810127,4.46412884 C22.9113924,4.46412884 23.2405063,4.81259151 23.2405063,5.21083455 L23.2405063,14.1961933 Z" id="Shape"></path>
                            <path d="M18.974863,6.10395758 C18.9228057,6.00859852 18.8186913,5.98475876 18.7145768,6.00859852 L12.9622521,8.44025449 C12.8581376,8.17801708 12.6499087,7.9634592 12.3635938,7.86810014 L9.26618823,6.91450957 L9.26618823,6.91450957 L8.22504349,6.60459263 L7.65241388,6.43771428 C7.57432802,6.41387452 7.23595598,6.29467569 6.74141223,6.17547687 L6.74141223,6.17547687 L6.45509742,6.10395758 C6.35098295,6.08011781 6.22083985,6.12779734 6.16878262,6.2231564 L4.63309412,10.0851982 C4.55500826,10.2997561 4.1906076,10.2997561 4.11252174,10.0851982 L2.57683324,6.2231564 C2.55080463,6.12779734 2.44669015,6.08011781 2.3686043,6.08011781 C2.34257568,6.08011781 1.56171712,6.29467569 1.56171712,6.29467569 C0.624686847,6.58075287 0,7.36746509 0,8.27337614 L0,12.3499758 C0,12.3976554 0,12.4214951 0.0260286186,12.4691747 L1.63980297,14.7101125 L1.63980297,18 L7.07978427,18 L7.07978427,14.7101125 L7.07978427,14.7101125 L7.07978427,8.17801708 L8.43327244,8.58329307 L8.43327244,8.58329307 L9.39633133,8.86937025 L11.7128784,9.58456318 C11.8169929,9.60840294 11.9211073,9.63224271 12.0252218,9.63224271 C12.4416797,9.63224271 12.8060804,9.39384506 12.9622521,9.01240883 C12.9882807,8.94088954 12.9882807,8.89321001 12.9882807,8.82169072 L18.8707485,6.34235522 C19.0008916,6.29467569 19.0269202,6.17547687 18.974863,6.10395758 Z" id="Path"></path>
                            <path d="M7,2.5 C7,1.12244898 5.87755102,0 4.5,0 C3.12244898,0 2,1.12244898 2,2.5 C2,3.87755102 3.12244898,5 4.5,5 C5.87755102,5 7,3.87755102 7,2.5 L7,2.5 Z" id="Path"></path>
                            <path d="M4.94576157,7.08823529 C4.90816698,7.02205882 4.83297781,7 4.75778863,7 L4.25026169,7 C4.17507252,7 4.11868063,7.02205882 4.06228875,7.08823529 C3.98709958,7.17647059 3.98709958,7.30882353 4.02469416,7.41911765 L4.28785628,7.90441176 L4.15627522,9.16176471 L4.40064004,9.93382353 C4.41943734,10.0220588 4.51342381,10.0220588 4.5510184,9.93382353 L4.79538322,9.16176471 L4.66380216,7.90441176 L4.92696428,7.41911765 C5.02095075,7.30882353 5.02095075,7.19852941 4.94576157,7.08823529 L4.94576157,7.08823529 Z" id="Path"></path>
                        </g>
                    </g>
                </g>
            </g>
        </g>
    </g>
</svg>