<?xml version="1.0" encoding="UTF-8"?>
<svg width="21px" height="23px" viewBox="0 0 21 23" version="1.1" xmlns="http://www.w3.org/2000/svg" xmlns:xlink="http://www.w3.org/1999/xlink">
    <!-- Generator: Sketch 60.1 (88133) - https://sketch.com -->
    <title>icon_erfahrung</title>
    <desc>Created with Sketch.</desc>
    <g id="Home" stroke="none" stroke-width="1" fill="none" fill-rule="evenodd">
        <g id="Desktop" transform="translate(-397.000000, -487.000000)" fill="#30414A" fill-rule="nonzero">
            <g id="Group-3" transform="translate(54.000000, 372.000000)">
                <g id="Group-2-Copy-5" transform="translate(333.000000, 106.000000)">
                    <g id="Group">
                        <g id="icon_erfahrung" transform="translate(9.000000, 8.000000)">
                            <g id="Group" transform="translate(0.167110, 0.333840)">
                                <path d="M21.6821959,13.8881953 L19.6699023,10.9923646 C19.5653676,10.8191097 19.5131002,10.6211042 19.4869665,10.4230987 C19.1472287,6.85899931 16.1941224,4.01266994 12.430872,3.66616027 C12.5092731,4.40868098 12.1956689,5.15120168 11.5945942,5.64621549 L10.2617763,6.71049517 L10.6799153,8.31929003 C10.862851,9.01230935 10.6799153,9.73007937 10.209509,10.2993452 C9.73910267,10.8438604 9.03349322,11.1903701 8.2756164,11.1903701 C7.83134378,11.1903701 7.38707117,11.0913673 6.99506592,10.8686111 L5.50544597,10.002337 L4.04195971,10.8686111 C3.98969234,10.9181125 3.91129129,10.9428632 3.83289024,10.9676139 C3.83289024,11.0171153 3.83289024,11.0418659 3.83289024,11.0913673 C3.83289024,13.5416857 5.06117335,15.9177519 6.99506592,17.4770454 C7.23026907,17.6750509 7.36093749,17.9225578 7.36093749,18.2195661 L7.36093749,22.4766848 C7.36093749,22.8231945 7.648408,23.0954521 7.98814588,23.1202028 L14.7567699,23.6647179 C15.1749088,23.6894686 15.5146467,23.3924604 15.5146467,23.0212 L15.5146467,20.0016158 C15.5146467,19.8036103 15.6975825,19.6551061 15.8805182,19.6551061 L18.2325497,19.6551061 C18.9642929,19.6551061 19.5392339,19.0858403 19.5392339,18.4175716 L19.5392339,15.3979874 C19.5392339,15.274234 19.6437686,15.1504805 19.8005707,15.1504805 L20.9504528,15.1504805 C21.6560623,15.1752312 22.0742012,14.4327105 21.6821959,13.8881953 Z" id="Path"></path>
                                <path d="M6.20996771,8.47187769 L8.12049358,9.56574822 C8.64840204,9.87488555 9.32714149,9.42306946 9.1763105,8.8523544 L8.64840204,6.80729211 C8.59812504,6.56949416 8.67354054,6.30791643 8.87464852,6.14145787 L10.5840664,4.76222981 C11.0616979,4.3817531 10.8103129,3.64457949 10.1818504,3.5970199 L7.94452409,3.43056134 C7.69313911,3.40678155 7.44175412,3.26410278 7.34120013,3.02630484 L6.48649119,1.07636172 C6.23510621,0.529426457 5.43067427,0.529426457 5.17928929,1.07636172 L4.32458035,3.02630484 C4.22402635,3.26410278 3.99777987,3.40678155 3.72125639,3.43056134 L1.48393005,3.5970199 C0.855467594,3.62079969 0.604082612,4.35797331 1.08171408,4.73845002 L2.79113196,6.11767808 C2.99223994,6.28413663 3.06765544,6.54571437 3.01737844,6.78351231 L2.48946998,8.8523544 C2.33863899,9.42306946 3.01737844,9.87488555 3.5452869,9.56574822 L5.45581277,8.47187769 C5.70719775,8.35297872 5.98372123,8.35297872 6.20996771,8.47187769 Z" id="Path"></path>
                            </g>
                        </g>
                    </g>
                </g>
            </g>
        </g>
    </g>
</svg>